PathFileType	4	(X/Y/Z)	Kaydara	
DataRate	CameraRate	NumFrames	NumMarkers	Units	OrigDataRate	OrigDataStartFrame	OrigNumFrames	
30.00	30.00	7	28	mm	30.00	16	126	
Frame#	Time	reference			Hips			Spine			Spine1			Neck			Head			Head_End			LeftShoulder			LeftArm			LeftForeArm			LeftHand			LeftHand_End			RightShoulder			RightArm			RightForeArm			RightHand			RightHand_End			LeftUpLeg			LeftLeg			LeftFoot			LeftFoot_End			RightUpLeg			RightLeg			RightFoot			RightFoot_End			Tail			Tail1			Tail1_End			
		X1	Y1	Z1	X2	Y2	Z2	X3	Y3	Z3	X4	Y4	Z4	X5	Y5	Z5	X6	Y6	Z6	X7	Y7	Z7	X8	Y8	Z8	X9	Y9	Z9	X10	Y10	Z10	X11	Y11	Z11	X12	Y12	Z12	X13	Y13	Z13	X14	Y14	Z14	X15	Y15	Z15	X16	Y16	Z16	X17	Y17	Z17	X18	Y18	Z18	X19	Y19	Z19	X20	Y20	Z20	X21	Y21	Z21	X22	Y22	Z22	X23	Y23	Z23	X24	Y24	Z24	X25	Y25	Z25	X26	Y26	Z26	X27	Y27	Z27	X28	Y28	Z28	

16	0.500	0.00000	0.00000	0.00000	245.28568	199.06830	467.10533	245.28574	199.06825	467.10535	235.94278	9.29814	466.98810	184.11149	-207.00391	432.52201	153.65777	-342.11004	412.05380	132.55465	-499.31096	350.87757	231.23759	-186.31652	402.68617	259.43699	-241.66820	352.27808	270.14267	-152.46658	229.67125	216.45572	-228.08879	77.74045	203.29475	-274.41612	24.21884	147.57228	-167.08606	407.81610	94.20802	-181.88448	350.06113	92.17594	-55.18868	266.10836	137.16888	-42.58501	94.35048	156.19763	-55.90013	26.19911	291.94524	254.97059	386.80020	317.78048	167.00813	255.67007	277.22274	281.89133	123.16747	263.58470	274.36171	16.29694	196.30063	258.22040	390.60315	182.68355	145.79487	277.57637	219.25602	295.36618	184.35161	233.03160	285.53830	77.68556	247.22853	267.15674	457.78609	262.66845	324.67471	353.60705	276.08831	374.97254	245.48659 
17	0.533	0.00000	0.00000	0.00000	244.42205	193.69577	467.50580	244.42211	193.69572	467.50582	235.62355	3.89999	467.91176	184.70566	-212.48257	432.59997	155.83391	-348.06758	413.02519	135.36253	-505.49671	352.22229	231.71686	-191.46804	402.81154	260.18312	-246.23464	351.91673	269.95792	-155.22426	230.56790	216.33071	-227.02837	76.77496	202.74362	-273.66584	23.63050	147.97290	-172.62325	408.08732	94.67046	-187.29093	350.24198	91.88878	-60.42669	266.56552	136.61505	-44.36235	95.02695	155.91877	-57.09114	26.84088	290.27549	249.77790	386.86243	317.44218	163.91273	254.61604	277.24478	280.37023	123.38404	263.35187	273.84582	16.48025	194.57170	251.17433	390.29021	181.33244	135.64758	280.38903	217.93176	281.79707	181.89640	231.84623	265.06604	76.11143	245.05874	261.72206	457.57216	261.08106	319.35455	353.54446	275.41230	369.23666	245.34839 
18	0.567	0.00000	0.00000	0.00000	243.45453	188.01790	467.95979	243.45459	188.01785	467.95981	235.14587	-1.79815	468.88135	185.30559	-218.28454	432.67974	157.97784	-354.35532	414.29547	138.24370	-512.19236	354.31186	232.20649	-196.91181	402.97240	260.84279	-251.04724	351.50097	270.43334	-158.23546	231.50943	216.60290	-226.25939	76.07775	202.73502	-273.24994	23.31825	148.37013	-178.50824	408.33741	94.98186	-193.14475	350.56336	91.18704	-66.21315	267.02899	135.76612	-46.41987	95.84221	155.43763	-57.45007	27.46559	288.38614	244.30025	386.93792	317.27699	160.36663	253.81982	277.63888	278.82234	124.21625	264.35763	273.17923	17.18465	192.66706	243.91750	390.19760	179.76333	125.50850	283.36698	216.17578	266.89850	178.09125	230.44254	243.25673	73.68087	242.82564	255.96135	457.47403	259.22326	313.76700	353.60100	274.44015	363.37927	245.40181 
19	0.600	0.00000	0.00000	0.00000	242.46412	182.25471	468.50666	242.46418	182.25467	468.50668	234.81092	-7.58518	470.00980	186.04189	-224.14729	432.81571	160.25234	-360.68944	415.75156	141.02663	-518.92713	356.66513	232.79828	-202.39015	403.15966	261.71264	-255.92034	351.21288	271.55591	-161.59811	232.42567	217.23347	-225.66336	75.49035	203.07506	-272.87718	23.00807	148.87469	-184.44413	408.70784	95.18833	-199.14940	351.22825	89.97979	-72.40580	267.48486	134.33112	-48.64522	96.74419	154.70824	-57.97509	28.32108	286.54815	238.63958	387.09143	317.07617	156.77396	253.05403	278.03975	277.18991	125.08459	265.53534	272.83931	17.89918	190.84491	236.68094	390.24854	178.03644	115.49967	286.56141	214.17471	250.89293	173.58942	228.46081	220.85753	70.83835	240.71198	250.09322	457.48278	257.32132	308.06152	353.73411	273.32106	357.57968	245.60475 
20	0.633	0.00000	0.00000	0.00000	241.51293	176.56157	469.07143	241.51299	176.56152	469.07145	234.68350	-13.30473	471.11239	186.91362	-229.92881	432.99397	162.62545	-366.90045	417.21741	143.69769	-525.57175	359.20742	233.49229	-207.79619	403.33612	262.76602	-260.83996	351.09248	273.18126	-165.32665	233.31004	218.10555	-225.23189	75.00020	203.59338	-272.35610	22.53401	149.49291	-190.29800	409.16079	95.39842	-205.21417	352.11986	88.03188	-78.98965	267.75680	132.28767	-51.10863	97.61551	153.65680	-58.89868	29.30248	284.88802	232.87240	387.22532	316.67237	153.34396	252.07746	278.39921	275.57391	125.60602	266.26731	272.98385	18.32084	189.21837	229.59722	390.30856	176.22919	105.71005	289.89327	211.90896	233.93769	168.71320	225.56948	198.31183	67.67762	238.82098	244.27360	457.47433	255.49979	302.39231	353.82099	272.10289	352.01129	245.82890 
21	0.667	0.00000	0.00000	0.00000	240.60238	170.98419	469.47536	240.60244	170.98415	469.47539	234.50901	-18.90445	471.75383	187.74164	-235.66914	433.19416	164.80184	-373.00210	418.58365	146.34019	-532.38376	362.39953	234.15617	-213.23429	403.50606	263.64193	-265.99332	351.09361	274.97720	-169.40456	234.27710	218.93573	-225.15021	74.79119	204.12480	-271.78153	21.96931	150.08203	-196.16629	409.52541	95.68641	-211.51351	352.88660	85.20296	-86.07567	267.68409	129.79326	-54.05577	98.36069	151.97255	-59.53150	30.08118	283.31521	227.02640	387.09831	316.03970	149.94708	250.76104	278.92008	274.14756	125.87551	266.69118	273.36751	18.57292	187.68959	222.69786	390.24770	174.41752	96.14140	293.25650	208.96609	216.02321	163.50779	221.44787	175.71672	64.09153	237.14137	238.55185	457.25687	253.72092	296.83347	353.67911	270.69164	346.72755	245.87107 
22	0.700	0.00000	0.00000	0.00000	239.54405	165.58254	469.79630	239.54411	165.58250	469.79632	234.14916	-24.32548	472.21576	188.59525	-241.34752	433.65097	166.72614	-378.96490	420.11424	149.17426	-539.13274	365.90910	234.83229	-218.63070	403.90041	264.53295	-271.17776	351.39644	276.21965	-173.56499	235.46912	219.70277	-225.50007	74.86848	204.45763	-271.60549	21.70955	150.66874	-202.05812	410.05321	95.93736	-217.97956	353.89844	83.26200	-93.23725	267.97572	127.30410	-57.59886	99.23278	150.24916	-60.52322	31.04944	281.67511	221.05830	386.73904	315.47082	146.38028	249.33087	279.25000	272.61861	126.23759	267.18146	273.38075	18.91672	186.09439	215.93430	390.05343	172.63889	86.56822	296.86895	205.15494	197.01999	158.51039	216.63635	153.66129	60.26477	235.48107	232.97496	456.81890	251.77946	291.35621	353.25263	268.87700	341.67588	245.66265 
